<?xml version="1.0" encoding="UTF-8"?>
<svg id="SVGDoc" width="149" height="55" xmlns="http://www.w3.org/2000/svg" version="1.1" xmlns:xlink="http://www.w3.org/1999/xlink" xmlns:avocode="https://avocode.com/" viewBox="0 0 149 55"><defs><clipPath id="ClipPath1092"><path d="M1.99988,-0.00047h145.00005c1.10456,0 2.00003,0.89538 2.00003,1.99994v51.00005c0,1.10456 -0.89547,2.00033 -2.00003,2.00033h-145.00005c-1.10456,0 -1.99994,-0.89577 -1.99994,-2.00033v-51.00005c0,-1.10456 0.89539,-1.99994 1.99994,-1.99994z" fill="#ffffff"></path></clipPath></defs><desc>Generated with Avocode.</desc><g><g opacity="0.6"><title>Rounded Rectangle 8</title><path d="M1.99988,-0.00047h145.00005c1.10456,0 2.00003,0.89538 2.00003,1.99994v51.00005c0,1.10456 -0.89547,2.00033 -2.00003,2.00033h-145.00005c-1.10456,0 -1.99994,-0.89577 -1.99994,-2.00033v-51.00005c0,-1.10456 0.89539,-1.99994 1.99994,-1.99994z" fill-opacity="0" fill="#ffffff" stroke-dashoffset="0" stroke-dasharray="" stroke-linejoin="miter" stroke-linecap="butt" stroke-opacity="1" stroke="#170f1c" stroke-miterlimit="50" stroke-width="7.08" clip-path="url(&quot;#ClipPath1092&quot;)"></path></g></g></svg>